<svg width="50" height="52" viewBox="0 0 50 52" fill="none" xmlns="http://www.w3.org/2000/svg">
<path d="M44.2097 11.6292C39.828 5.78705 32.848 2 25 2C17.234 2 10.3212 5.71088 5.93176 11.4492C5.9079 11.4735 5.89044 11.5021 5.86902 11.5291C2.81592 15.5554 1 20.569 1 26C1 31.3831 2.78192 36.3578 5.78638 40.3658L5.78912 40.3694C10.1707 46.2124 17.1513 50 25 50C32.7809 50 39.7058 46.2752 44.094 40.518C44.1249 40.4838 44.1529 40.4487 44.179 40.4099C47.2039 36.3941 49 31.4032 49 26C49 20.6183 47.2191 15.6447 44.216 11.6371C44.2137 11.6346 44.2121 11.6317 44.2097 11.6292ZM18.2584 5.06085C16.3024 6.99097 14.6605 9.7478 13.473 13.0839C11.7492 12.6919 10.0364 12.2128 8.34003 11.6562C10.9508 8.62805 14.3682 6.31635 18.2584 5.06085ZM7.03284 13.3281C8.95575 13.9854 10.9023 14.5401 12.8623 14.9916C12.0014 17.9968 11.4867 21.3825 11.4064 25H3.02539C3.22034 20.6666 4.677 16.6586 7.03284 13.3281ZM3.02539 27H11.4064C11.4844 30.5106 11.9705 33.8038 12.7859 36.742C10.7662 37.1923 8.79993 37.7769 6.8924 38.4745C4.61829 35.1838 3.21649 31.2477 3.02539 27ZM8.16638 40.1434C9.85907 39.5517 11.5983 39.0524 13.3811 38.661C14.5751 42.1126 16.2523 44.9597 18.2584 46.9391C14.2822 45.6559 10.7982 43.2707 8.16638 40.1434ZM24 47.913C20.4094 47.3291 17.28 43.6393 15.3687 38.2656C18.1774 37.7729 21.0706 37.5288 24 37.5179V47.913ZM24 35.5196C20.8627 35.5308 17.766 35.8051 14.7605 36.3482C13.9669 33.5385 13.4858 30.367 13.4059 27H24V35.5196ZM24 25H13.4059C13.4882 21.535 13.9951 18.2769 14.8304 15.4073C17.8836 16.0014 20.9542 16.3505 24 16.4485V25ZM24 14.4484C21.1636 14.3535 18.3041 14.0357 15.4578 13.4944C17.3763 8.25214 20.4636 4.66211 24 4.08704V14.4484ZM41.8334 11.8563C40.1407 12.4479 38.4016 12.9472 36.6187 13.3384C35.4248 9.88715 33.7476 7.04022 31.7416 5.06085C35.7177 6.34412 39.2016 8.72913 41.8334 11.8563ZM26 4.08704C29.5905 4.6709 32.7198 8.36041 34.631 13.7337C31.8223 14.2263 28.9294 14.4703 26 14.4812V4.08704ZM26 16.4836C29.1371 16.4724 32.2342 16.1962 35.2399 15.6531C36.0333 18.4625 36.5142 21.6335 36.5941 25H26V16.4836ZM26 27H36.5941C36.5118 30.4646 36.0051 33.7223 35.1699 36.5917C32.1165 35.9974 29.0459 35.6503 26 35.5522V27ZM26 47.913V37.5508C28.8364 37.6456 31.696 37.9634 34.5424 38.5048C32.624 43.7476 29.5365 47.3379 26 47.913ZM31.7416 46.9391C33.6978 45.0089 35.3397 42.2519 36.5272 38.9155C38.251 39.3076 39.9638 39.7868 41.6602 40.3436C39.0493 43.3718 35.632 45.6836 31.7416 46.9391ZM42.9676 38.6713C41.0446 38.0141 39.0981 37.4584 37.1381 37.0068C37.9987 34.002 38.5133 30.6169 38.5936 27H46.9746C46.7797 31.3332 45.3232 35.3409 42.9676 38.6713ZM38.5936 25C38.5156 21.4882 38.0291 18.1942 37.2132 15.2551C39.233 14.8049 41.2 14.2225 43.1073 13.5251C45.3816 16.816 46.7835 20.7521 46.9746 25H38.5936Z" fill="black"/>
</svg>
