<svg width="32" height="32" viewBox="0 0 32 32" fill="none" xmlns="http://www.w3.org/2000/svg">
<g clip-path="url(#clip0_1350_2830)">
<path d="M21 21L30 30M13 24C14.4445 24 15.8749 23.7155 17.2095 23.1627C18.5441 22.6099 19.7567 21.7996 20.7782 20.7782C21.7996 19.7567 22.6099 18.5441 23.1627 17.2095C23.7155 15.8749 24 14.4445 24 13C24 11.5555 23.7155 10.1251 23.1627 8.79048C22.6099 7.4559 21.7996 6.24327 20.7782 5.22183C19.7567 4.20038 18.5441 3.39013 17.2095 2.83733C15.8749 2.28452 14.4445 2 13 2C10.0826 2 7.28473 3.15893 5.22183 5.22183C3.15893 7.28473 2 10.0826 2 13C2 15.9174 3.15893 18.7153 5.22183 20.7782C7.28473 22.8411 10.0826 24 13 24Z" stroke="white" stroke-width="4"/>
</g>
<defs>
<clipPath id="clip0_1350_2830">
<rect width="32" height="32" fill="white"/>
</clipPath>
</defs>
</svg>
